<mxfile host="app.diagrams.net" agent="Mozilla/5.0 (Macintosh; Intel Mac OS X 10_15_7) AppleWebKit/537.36 (KHTML, like Gecko) Chrome/127.0.0.0 Safari/537.36" version="24.7.8">
  <diagram name="第 1 页" id="4Rl7yl0K_HuRmVhjNK2K">
    <mxGraphModel dx="823" dy="537" grid="1" gridSize="10" guides="1" tooltips="1" connect="1" arrows="1" fold="1" page="1" pageScale="1" pageWidth="827" pageHeight="1169" math="1" shadow="0">
      <root>
        <mxCell id="0" />
        <mxCell id="1" parent="0" />
        <mxCell id="A09hQBWDAy5bwmzSChha-29" value="" style="rounded=1;whiteSpace=wrap;html=1;arcSize=6;fillColor=#dae8fc;strokeColor=#6c8ebf;opacity=50;" vertex="1" parent="1">
          <mxGeometry x="260" y="387.5" width="220" height="215" as="geometry" />
        </mxCell>
        <mxCell id="A09hQBWDAy5bwmzSChha-1" value="" style="rounded=0;whiteSpace=wrap;html=1;fillColor=#dae8fc;strokeColor=#6c8ebf;shadow=1;container=0;" vertex="1" parent="1">
          <mxGeometry x="350" y="475" width="40" height="40" as="geometry" />
        </mxCell>
        <mxCell id="A09hQBWDAy5bwmzSChha-2" value="" style="rounded=0;whiteSpace=wrap;html=1;fillColor=#f8cecc;strokeColor=#b85450;shadow=1;container=0;" vertex="1" parent="1">
          <mxGeometry x="420" y="475" width="40" height="40" as="geometry" />
        </mxCell>
        <mxCell id="A09hQBWDAy5bwmzSChha-3" value="" style="rounded=0;whiteSpace=wrap;html=1;fillColor=#f8cecc;strokeColor=#b85450;shadow=1;container=0;" vertex="1" parent="1">
          <mxGeometry x="420" y="545" width="40" height="40" as="geometry" />
        </mxCell>
        <mxCell id="A09hQBWDAy5bwmzSChha-4" value="" style="rounded=0;whiteSpace=wrap;html=1;fillColor=#d5e8d4;strokeColor=#82b366;shadow=1;container=0;" vertex="1" parent="1">
          <mxGeometry x="350" y="545" width="40" height="40" as="geometry" />
        </mxCell>
        <mxCell id="A09hQBWDAy5bwmzSChha-5" value="" style="rounded=0;whiteSpace=wrap;html=1;fillColor=#f8cecc;strokeColor=#b85450;shadow=1;container=0;" vertex="1" parent="1">
          <mxGeometry x="280" y="545" width="40" height="40" as="geometry" />
        </mxCell>
        <mxCell id="A09hQBWDAy5bwmzSChha-6" value="" style="rounded=0;whiteSpace=wrap;html=1;fillColor=#f8cecc;strokeColor=#b85450;shadow=1;container=0;" vertex="1" parent="1">
          <mxGeometry x="280" y="475" width="40" height="40" as="geometry" />
        </mxCell>
        <mxCell id="A09hQBWDAy5bwmzSChha-7" value="" style="rounded=0;whiteSpace=wrap;html=1;fillColor=#f8cecc;strokeColor=#b85450;shadow=1;container=0;" vertex="1" parent="1">
          <mxGeometry x="280" y="405" width="40" height="40" as="geometry" />
        </mxCell>
        <mxCell id="A09hQBWDAy5bwmzSChha-8" value="" style="rounded=0;whiteSpace=wrap;html=1;fillColor=#d5e8d4;strokeColor=#82b366;shadow=1;container=0;" vertex="1" parent="1">
          <mxGeometry x="350" y="405" width="40" height="40" as="geometry" />
        </mxCell>
        <mxCell id="A09hQBWDAy5bwmzSChha-9" value="" style="rounded=0;whiteSpace=wrap;html=1;fillColor=#f8cecc;strokeColor=#b85450;shadow=1;container=0;" vertex="1" parent="1">
          <mxGeometry x="420" y="405" width="40" height="40" as="geometry" />
        </mxCell>
        <mxCell id="A09hQBWDAy5bwmzSChha-10" value="" style="endArrow=classic;html=1;rounded=0;fillColor=#f8cecc;strokeColor=#b85450;shadow=1;" edge="1" parent="1">
          <mxGeometry width="50" height="50" relative="1" as="geometry">
            <mxPoint x="415" y="495" as="sourcePoint" />
            <mxPoint x="395" y="495" as="targetPoint" />
          </mxGeometry>
        </mxCell>
        <mxCell id="A09hQBWDAy5bwmzSChha-11" value="" style="endArrow=classic;html=1;rounded=0;fillColor=#f8cecc;strokeColor=#b85450;shadow=1;" edge="1" parent="1">
          <mxGeometry width="50" height="50" relative="1" as="geometry">
            <mxPoint x="325" y="495" as="sourcePoint" />
            <mxPoint x="345" y="495" as="targetPoint" />
          </mxGeometry>
        </mxCell>
        <mxCell id="A09hQBWDAy5bwmzSChha-12" value="" style="endArrow=classic;html=1;rounded=0;fillColor=#f8cecc;strokeColor=#b85450;shadow=1;" edge="1" parent="1">
          <mxGeometry width="50" height="50" relative="1" as="geometry">
            <mxPoint x="370" y="450" as="sourcePoint" />
            <mxPoint x="370" y="470" as="targetPoint" />
          </mxGeometry>
        </mxCell>
        <mxCell id="A09hQBWDAy5bwmzSChha-13" value="" style="endArrow=classic;html=1;rounded=0;fillColor=#f8cecc;strokeColor=#b85450;shadow=1;" edge="1" parent="1">
          <mxGeometry width="50" height="50" relative="1" as="geometry">
            <mxPoint x="370" y="540" as="sourcePoint" />
            <mxPoint x="370" y="520" as="targetPoint" />
          </mxGeometry>
        </mxCell>
        <mxCell id="A09hQBWDAy5bwmzSChha-14" value="" style="endArrow=classic;html=1;rounded=0;fillColor=#f8cecc;strokeColor=#b85450;shadow=1;" edge="1" parent="1">
          <mxGeometry width="50" height="50" relative="1" as="geometry">
            <mxPoint x="325" y="450" as="sourcePoint" />
            <mxPoint x="345" y="470" as="targetPoint" />
          </mxGeometry>
        </mxCell>
        <mxCell id="A09hQBWDAy5bwmzSChha-15" value="" style="endArrow=classic;html=1;rounded=0;fillColor=#f8cecc;strokeColor=#b85450;shadow=1;" edge="1" parent="1">
          <mxGeometry width="50" height="50" relative="1" as="geometry">
            <mxPoint x="325" y="540" as="sourcePoint" />
            <mxPoint x="345" y="520" as="targetPoint" />
          </mxGeometry>
        </mxCell>
        <mxCell id="A09hQBWDAy5bwmzSChha-16" value="" style="endArrow=classic;html=1;rounded=0;fillColor=#f8cecc;strokeColor=#b85450;shadow=1;" edge="1" parent="1">
          <mxGeometry width="50" height="50" relative="1" as="geometry">
            <mxPoint x="415" y="450" as="sourcePoint" />
            <mxPoint x="395" y="470" as="targetPoint" />
          </mxGeometry>
        </mxCell>
        <mxCell id="A09hQBWDAy5bwmzSChha-17" value="" style="endArrow=classic;html=1;rounded=0;fillColor=#f8cecc;strokeColor=#b85450;shadow=1;" edge="1" parent="1">
          <mxGeometry width="50" height="50" relative="1" as="geometry">
            <mxPoint x="415" y="540" as="sourcePoint" />
            <mxPoint x="395" y="520" as="targetPoint" />
          </mxGeometry>
        </mxCell>
        <mxCell id="A09hQBWDAy5bwmzSChha-18" value="&lt;div style=&quot;text-align: justify;&quot;&gt;&lt;br&gt;&lt;/div&gt;" style="text;html=1;strokeColor=none;fillColor=none;align=center;verticalAlign=middle;whiteSpace=wrap;rounded=0;" vertex="1" parent="1">
          <mxGeometry x="280" y="475" width="40" height="40" as="geometry" />
        </mxCell>
        <mxCell id="A09hQBWDAy5bwmzSChha-19" value="&lt;font style=&quot;font-size: 20px;&quot;&gt;$$c_{11}$$&lt;/font&gt;" style="text;html=1;strokeColor=none;fillColor=none;align=center;verticalAlign=middle;whiteSpace=wrap;rounded=0;" vertex="1" parent="1">
          <mxGeometry x="280" y="405" width="40" height="40" as="geometry" />
        </mxCell>
        <mxCell id="A09hQBWDAy5bwmzSChha-20" value="&lt;span style=&quot;font-size: 20px;&quot;&gt;$$c_{12}$$&lt;/span&gt;" style="text;html=1;strokeColor=#b85450;fillColor=#f8cecc;align=center;verticalAlign=middle;whiteSpace=wrap;rounded=0;" vertex="1" parent="1">
          <mxGeometry x="350" y="405" width="40" height="40" as="geometry" />
        </mxCell>
        <mxCell id="A09hQBWDAy5bwmzSChha-21" value="&lt;span style=&quot;font-size: 20px;&quot;&gt;$$c_{23}$$&lt;/span&gt;" style="text;html=1;strokeColor=none;fillColor=none;align=center;verticalAlign=middle;whiteSpace=wrap;rounded=0;" vertex="1" parent="1">
          <mxGeometry x="421" y="475" width="40" height="40" as="geometry" />
        </mxCell>
        <mxCell id="A09hQBWDAy5bwmzSChha-22" value="&lt;span style=&quot;font-size: 20px;&quot;&gt;$$c_{21}$$&lt;/span&gt;" style="text;html=1;strokeColor=none;fillColor=none;align=center;verticalAlign=middle;whiteSpace=wrap;rounded=0;" vertex="1" parent="1">
          <mxGeometry x="280" y="475" width="40" height="40" as="geometry" />
        </mxCell>
        <mxCell id="A09hQBWDAy5bwmzSChha-23" value="&lt;span style=&quot;font-size: 20px;&quot;&gt;$$c_{32}$$&lt;/span&gt;" style="text;html=1;strokeColor=#b85450;fillColor=#f8cecc;align=center;verticalAlign=middle;whiteSpace=wrap;rounded=0;" vertex="1" parent="1">
          <mxGeometry x="350" y="545" width="40" height="40" as="geometry" />
        </mxCell>
        <mxCell id="A09hQBWDAy5bwmzSChha-24" value="&lt;span style=&quot;font-size: 20px;&quot;&gt;$$c_{13}$$&lt;/span&gt;" style="text;html=1;strokeColor=none;fillColor=none;align=center;verticalAlign=middle;whiteSpace=wrap;rounded=0;" vertex="1" parent="1">
          <mxGeometry x="421" y="405" width="40" height="40" as="geometry" />
        </mxCell>
        <mxCell id="A09hQBWDAy5bwmzSChha-25" value="&lt;span style=&quot;font-size: 20px;&quot;&gt;$$c_{31}$$&lt;/span&gt;" style="text;html=1;strokeColor=none;fillColor=none;align=center;verticalAlign=middle;whiteSpace=wrap;rounded=0;" vertex="1" parent="1">
          <mxGeometry x="280" y="545" width="40" height="40" as="geometry" />
        </mxCell>
        <mxCell id="A09hQBWDAy5bwmzSChha-26" value="&lt;span style=&quot;font-size: 20px;&quot;&gt;$$c_{33}$$&lt;/span&gt;" style="text;html=1;strokeColor=none;fillColor=none;align=center;verticalAlign=middle;whiteSpace=wrap;rounded=0;" vertex="1" parent="1">
          <mxGeometry x="421" y="545" width="40" height="40" as="geometry" />
        </mxCell>
        <mxCell id="A09hQBWDAy5bwmzSChha-27" value="&lt;span style=&quot;font-size: 20px;&quot;&gt;$$c_{22}$$&lt;/span&gt;" style="text;html=1;strokeColor=#82b366;fillColor=#d5e8d4;align=center;verticalAlign=middle;whiteSpace=wrap;rounded=0;" vertex="1" parent="1">
          <mxGeometry x="350" y="475" width="40" height="40" as="geometry" />
        </mxCell>
      </root>
    </mxGraphModel>
  </diagram>
</mxfile>
